<svg width="36" height="27" viewBox="0 0 36 27" fill="none" xmlns="http://www.w3.org/2000/svg">
<path d="M29.8552 2.41272C29.8457 2.3942 29.8298 2.37969 29.8106 2.37179C27.581 1.34885 25.2282 0.619417 22.811 0.20174C22.7891 0.197658 22.7664 0.200603 22.7462 0.210157C22.726 0.219712 22.7093 0.235389 22.6986 0.254959C22.3782 0.836442 22.0874 1.43372 21.8272 2.04452C19.2216 1.64899 16.5712 1.64899 13.9657 2.04452C13.7038 1.43217 13.4083 0.834743 13.0805 0.254959C13.0693 0.235814 13.0525 0.220498 13.0325 0.211006C13.0124 0.201513 12.9899 0.198285 12.968 0.20174C10.5506 0.61854 8.19761 1.34803 5.96837 2.37184C5.94929 2.37993 5.93319 2.39375 5.92229 2.41138C1.46424 9.06889 0.243012 15.5627 0.842105 21.9761C0.84379 21.9918 0.848619 22.007 0.856305 22.0209C0.863991 22.0347 0.874376 22.0468 0.886844 22.0565C3.48272 23.9786 6.38625 25.4457 9.47351 26.3953C9.49525 26.4018 9.51847 26.4015 9.54004 26.3944C9.56161 26.3874 9.58049 26.3739 9.59416 26.3557C10.2572 25.4535 10.8448 24.4981 11.3508 23.4993C11.3577 23.4856 11.3617 23.4706 11.3624 23.4553C11.3632 23.4399 11.3606 23.4246 11.355 23.4103C11.3494 23.396 11.3408 23.383 11.3298 23.3723C11.3188 23.3616 11.3056 23.3533 11.2912 23.348C10.3647 22.9935 9.46774 22.5661 8.60873 22.07C8.59313 22.0608 8.58002 22.0479 8.57057 22.0325C8.56112 22.017 8.55562 21.9995 8.55455 21.9814C8.55348 21.9634 8.55688 21.9453 8.56444 21.9289C8.572 21.9124 8.5835 21.8981 8.59791 21.8872C8.77815 21.7521 8.95851 21.6116 9.13063 21.4698C9.14592 21.4572 9.16442 21.4491 9.18405 21.4465C9.20368 21.4438 9.22367 21.4467 9.24174 21.4548C14.8694 24.0232 20.9622 24.0232 26.5233 21.4548C26.5414 21.4462 26.5616 21.4429 26.5815 21.4453C26.6014 21.4477 26.6202 21.4557 26.6358 21.4684C26.808 21.6103 26.9883 21.7521 27.1698 21.8872C27.1843 21.898 27.1959 21.9122 27.2036 21.9286C27.2113 21.945 27.2148 21.963 27.2139 21.9811C27.213 21.9992 27.2076 22.0167 27.1982 22.0322C27.1889 22.0477 27.1759 22.0607 27.1604 22.07C26.3033 22.5703 25.4055 22.9974 24.4766 23.3466C24.4622 23.3521 24.4491 23.3606 24.4382 23.3715C24.4272 23.3824 24.4187 23.3955 24.4132 23.4099C24.4077 23.4243 24.4053 23.4397 24.4061 23.4551C24.407 23.4706 24.4111 23.4856 24.4181 23.4993C24.9326 24.4926 25.5193 25.4468 26.1734 26.3542C26.1867 26.3728 26.2055 26.3867 26.2271 26.3941C26.2488 26.4014 26.2722 26.4018 26.2941 26.3951C29.3869 25.4487 32.2955 23.9815 34.8946 22.0565C34.9073 22.0473 34.9178 22.0355 34.9255 22.0218C34.9332 22.0082 34.9379 21.9931 34.9393 21.9775C35.6566 14.5629 33.7386 8.12229 29.8552 2.41272ZM12.1912 18.071C10.4969 18.071 9.1008 16.5161 9.1008 14.6066C9.1008 12.697 10.4698 11.142 12.1912 11.142C13.9261 11.142 15.3087 12.7105 15.2816 14.6065C15.2816 16.5161 13.9125 18.071 12.1912 18.071ZM23.6175 18.071C21.9232 18.071 20.5271 16.5161 20.5271 14.6066C20.5271 12.697 21.8961 11.142 23.6175 11.142C25.3525 11.142 26.735 12.7105 26.708 14.6065C26.708 16.5161 25.3525 18.071 23.6175 18.071Z" fill="white"/>
</svg>
