<svg width="37" height="30" viewBox="0 0 37 30" fill="none" xmlns="http://www.w3.org/2000/svg">
<g filter="url(#filter0_d_149_70)">
<path d="M29.3552 2.41278C29.3456 2.39426 29.3298 2.37975 29.3105 2.37185C27.081 1.34891 24.7282 0.619478 22.311 0.201801C22.289 0.197719 22.2663 0.200664 22.2462 0.210218C22.226 0.219773 22.2093 0.23545 22.1985 0.25502C21.8782 0.836503 21.5873 1.43378 21.3271 2.04458C18.7216 1.64905 16.0712 1.64905 13.4656 2.04458C13.2037 1.43223 12.9082 0.834804 12.5805 0.25502C12.5692 0.235875 12.5525 0.220559 12.5324 0.211067C12.5123 0.201574 12.4899 0.198346 12.468 0.201801C10.0505 0.618601 7.69757 1.34809 5.46832 2.3719C5.44924 2.37999 5.43314 2.39381 5.42224 2.41144C0.96419 9.06895 -0.257038 15.5628 0.342055 21.9762C0.34374 21.9919 0.34857 22.0071 0.356255 22.0209C0.363941 22.0347 0.374327 22.0469 0.386794 22.0566C2.98267 23.9786 5.8862 25.4458 8.97346 26.3953C8.9952 26.4018 9.01842 26.4016 9.03999 26.3945C9.06156 26.3874 9.08044 26.3739 9.09411 26.3558C9.75719 25.4536 10.3447 24.4982 10.8507 23.4994C10.8577 23.4857 10.8617 23.4707 10.8624 23.4553C10.8631 23.44 10.8606 23.4246 10.8549 23.4103C10.8493 23.396 10.8407 23.3831 10.8297 23.3724C10.8187 23.3616 10.8056 23.3533 10.7911 23.348C9.86465 22.9935 8.96769 22.5662 8.10868 22.07C8.09308 22.0609 8.07997 22.048 8.07052 22.0325C8.06107 22.0171 8.05557 21.9996 8.0545 21.9815C8.05343 21.9634 8.05683 21.9454 8.06439 21.9289C8.07195 21.9125 8.08345 21.8982 8.09786 21.8872C8.27811 21.7522 8.45846 21.6117 8.63058 21.4698C8.64587 21.4572 8.66437 21.4492 8.684 21.4465C8.70364 21.4439 8.72362 21.4468 8.74169 21.4549C14.3694 24.0232 20.4621 24.0232 26.0232 21.4549C26.0413 21.4462 26.0615 21.443 26.0815 21.4454C26.1014 21.4478 26.1202 21.4558 26.1357 21.4685C26.3079 21.6104 26.4882 21.7522 26.6698 21.8872C26.6843 21.8981 26.6959 21.9123 26.7036 21.9287C26.7112 21.9451 26.7148 21.9631 26.7138 21.9812C26.7129 21.9992 26.7075 22.0168 26.6982 22.0323C26.6889 22.0478 26.6759 22.0608 26.6603 22.07C25.8033 22.5704 24.9055 22.9975 23.9766 23.3467C23.9621 23.3522 23.949 23.3607 23.9381 23.3716C23.9272 23.3825 23.9187 23.3956 23.9132 23.41C23.9076 23.4244 23.9052 23.4398 23.9061 23.4552C23.9069 23.4706 23.911 23.4857 23.9181 23.4994C24.4326 24.4926 25.0193 25.4468 25.6734 26.3542C25.6867 26.3728 25.7054 26.3868 25.7271 26.3941C25.7487 26.4015 25.7722 26.4018 25.794 26.3952C28.8868 25.4488 31.7954 23.9815 34.3946 22.0566C34.4072 22.0473 34.4177 22.0355 34.4255 22.0219C34.4332 22.0082 34.4379 21.9931 34.4393 21.9775C35.1565 14.563 33.2385 8.12235 29.3552 2.41278ZM11.6912 18.0711C9.99684 18.0711 8.60075 16.5162 8.60075 14.6066C8.60075 12.6971 9.96976 11.1421 11.6912 11.1421C13.4261 11.1421 14.8087 12.7106 14.7816 14.6065C14.7816 16.5162 13.4125 18.0711 11.6912 18.0711ZM23.1175 18.0711C21.4232 18.0711 20.0271 16.5162 20.0271 14.6066C20.0271 12.6971 21.3961 11.1421 23.1175 11.1421C24.8525 11.1421 26.235 12.7106 26.2079 14.6065C26.2079 16.5162 24.8525 18.0711 23.1175 18.0711Z" fill="white"/>
</g>
<defs>
<filter id="filter0_d_149_70" x="0.199951" y="0.200012" width="37.3875" height="29.2" filterUnits="userSpaceOnUse" color-interpolation-filters="sRGB">
<feFlood flood-opacity="0" result="BackgroundImageFix"/>
<feColorMatrix in="SourceAlpha" type="matrix" values="0 0 0 0 0 0 0 0 0 0 0 0 0 0 0 0 0 0 127 0" result="hardAlpha"/>
<feOffset dx="3" dy="3"/>
<feComposite in2="hardAlpha" operator="out"/>
<feColorMatrix type="matrix" values="0 0 0 0 0.592157 0 0 0 0 0.372549 0 0 0 0 0.996078 0 0 0 1 0"/>
<feBlend mode="normal" in2="BackgroundImageFix" result="effect1_dropShadow_149_70"/>
<feBlend mode="normal" in="SourceGraphic" in2="effect1_dropShadow_149_70" result="shape"/>
</filter>
</defs>
</svg>
