<svg width="35" height="33" viewBox="0 0 35 33" fill="none" xmlns="http://www.w3.org/2000/svg">
<g filter="url(#filter0_d_149_68)">
<path fill-rule="evenodd" clip-rule="evenodd" d="M21.966 9.03347L22.1009 9.20644C22.1678 9.29293 22.2332 9.37735 22.2909 9.45457C22.3423 9.55753 22.4453 9.66049 22.4968 9.81493C22.5869 9.95033 22.6672 10.0852 22.7459 10.2206L22.8139 10.3359C22.8927 10.4713 22.973 10.6067 23.0631 10.7416C23.1145 10.896 23.2175 11.0505 23.269 11.2049C23.4749 11.6167 23.6293 12.0286 23.6808 12.4919C23.7323 12.5949 23.7323 12.6978 23.7323 12.7493C23.7838 12.8523 23.7838 13.0067 23.7838 13.1611C23.8353 13.6245 23.7838 14.0363 23.7323 14.4996C23.7133 14.5768 23.6937 14.6469 23.6746 14.7148L23.636 14.8507C23.6165 14.9187 23.5974 14.9887 23.5779 15.0659C23.5264 15.2203 23.4749 15.4263 23.3719 15.6322C23.2175 15.9925 23.0116 16.3529 22.8057 16.7133C22.7542 16.8162 22.6512 16.9707 22.5483 17.1251C22.4453 17.2795 22.3423 17.3825 22.2909 17.5369C22.1879 17.6914 22.0335 17.8458 21.9305 18.0003C21.8275 18.1547 21.7246 18.3091 21.5701 18.4636C21.4157 18.6695 21.2098 18.8754 21.0553 19.0813C20.9524 19.1843 20.8494 19.3387 20.695 19.4417C20.592 19.5447 20.4891 19.6991 20.3346 19.8021C20.1802 19.9565 20.0257 20.1109 19.8713 20.2139L19.5624 20.4713C19.5109 20.5228 19.4595 20.5228 19.408 20.5228H17.1429V23.4057H19.9743C20.592 23.4057 21.2098 23.1997 21.6731 22.7879C21.8275 22.6335 22.5483 22.0157 23.4234 21.0891C23.4749 21.0376 23.4749 21.0376 23.5264 21.0376L31.3514 18.7725C31.6602 18.618 31.7632 18.721 31.7632 18.8754V20.5228C31.7632 20.6257 31.7117 20.6772 31.6088 20.7287C31.094 20.9346 29.2922 21.7583 28.5714 22.7879C26.6667 25.4134 25.2252 29.1714 22.0335 29.1714H8.59717C3.861 29.1714 0 25.3104 0 20.5228V20.3683C0 20.2654 0.10296 20.1624 0.20592 20.1624H7.77349C7.92793 20.1624 8.03089 20.3169 8.03089 20.4198C7.97941 20.8831 8.08237 21.3979 8.28829 21.8613C8.75161 22.7879 9.67825 23.3027 10.6564 23.3027H14.3629V20.4198H10.7079C10.5019 20.4198 10.399 20.2139 10.5019 20.0595C10.5534 20.008 10.6049 19.9565 10.6564 19.8535C11.0167 19.3387 11.4801 18.618 11.9949 17.7429C12.3552 17.1766 12.6641 16.5073 12.9215 15.8896C12.973 15.7866 13.0245 15.6837 13.0759 15.5292C13.1274 15.3233 13.2304 15.1174 13.2819 14.9629C13.3333 14.8085 13.3848 14.6541 13.4363 14.4996C13.5393 13.9848 13.5907 13.4185 13.5907 12.8008C13.5907 12.5949 13.5907 12.3375 13.5393 12.0801C13.5393 11.9673 13.5295 11.8546 13.5181 11.7423L13.5089 11.6456C13.4976 11.5328 13.4878 11.4206 13.4878 11.3079C13.4878 11.1019 13.4363 10.8445 13.3848 10.6386C13.3333 10.2783 13.2819 9.96937 13.1789 9.60901L13.1274 9.50606C13.0759 9.30014 13.0245 9.04273 12.9215 8.83681C12.7156 8.11609 12.4582 7.39537 12.2008 6.77761C12.0978 6.52021 11.9949 6.26281 11.8919 6.00541C11.7375 5.64505 11.583 5.28469 11.4286 4.97581C11.3771 4.82137 11.2741 4.71841 11.2227 4.56397C11.1712 4.40953 11.0682 4.25509 11.0167 4.10065C10.9653 3.99769 10.9138 3.89473 10.8623 3.79177L10.399 2.96809C10.3475 2.86513 10.4505 2.71069 10.5534 2.76217L13.3848 3.53437L13.7452 3.63733L14.157 3.74029L14.3115 3.79177V2.09293C14.3115 1.26925 14.9807 0.600006 15.7529 0.600006C16.1647 0.600006 16.5251 0.754446 16.7825 1.01185C17.0399 1.26925 17.1943 1.62961 17.1943 2.04145V4.51249L17.5032 4.61545C17.5032 4.61545 17.5547 4.61545 17.5547 4.66693C17.6062 4.71841 17.7091 4.82137 17.8636 4.92433C17.9665 5.02729 18.0695 5.13025 18.2239 5.23321C18.4813 5.43913 18.8417 5.74801 19.2021 6.05689C19.305 6.15985 19.408 6.21133 19.4595 6.31429C19.9228 6.72613 20.4376 7.24093 20.9524 7.80721C21.1068 7.96165 21.2098 8.11609 21.3642 8.27053C21.5187 8.42497 21.6216 8.63089 21.7761 8.78533C21.8342 8.86255 21.8991 8.94698 21.966 9.03347ZM1.95624 16.9192L2.0592 16.7647L8.75161 6.31429C8.85457 6.15985 9.06049 6.15985 9.16345 6.36577C10.296 8.88829 11.2227 11.9771 10.8108 13.9333C10.6049 14.757 10.0901 15.8381 9.47233 16.8162C9.42085 16.9707 9.31789 17.1251 9.21493 17.2281C9.16345 17.2795 9.11197 17.331 9.00901 17.331H2.11068C1.95624 17.2795 1.85328 17.0736 1.95624 16.9192Z" fill="white"/>
</g>
<defs>
<filter id="filter0_d_149_68" x="0" y="0.600006" width="34.7632" height="31.5714" filterUnits="userSpaceOnUse" color-interpolation-filters="sRGB">
<feFlood flood-opacity="0" result="BackgroundImageFix"/>
<feColorMatrix in="SourceAlpha" type="matrix" values="0 0 0 0 0 0 0 0 0 0 0 0 0 0 0 0 0 0 127 0" result="hardAlpha"/>
<feOffset dx="3" dy="3"/>
<feComposite in2="hardAlpha" operator="out"/>
<feColorMatrix type="matrix" values="0 0 0 0 0.133333 0 0 0 0 0.360784 0 0 0 0 0.886275 0 0 0 1 0"/>
<feBlend mode="normal" in2="BackgroundImageFix" result="effect1_dropShadow_149_68"/>
<feBlend mode="normal" in="SourceGraphic" in2="effect1_dropShadow_149_68" result="shape"/>
</filter>
</defs>
</svg>
