<svg width="33" height="27" viewBox="0 0 33 27" fill="none" xmlns="http://www.w3.org/2000/svg">
<path d="M32.8014 3.10733C31.6139 3.63516 30.336 3.9912 28.9951 4.15053C30.3642 3.33092 31.414 2.03265 31.909 0.483901C30.6284 1.24385 29.2108 1.79529 27.7008 2.09297C26.4923 0.80519 24.7698 0 22.8637 0C19.2043 0 16.2373 2.96701 16.2373 6.62709C16.2373 7.14574 16.2956 7.65128 16.4091 8.13715C10.9013 7.86044 6.01766 5.22259 2.74903 1.21303C2.17858 2.19132 1.85205 3.32961 1.85205 4.54526C1.85205 6.84412 3.0218 8.87283 4.80004 10.0609C3.71421 10.0262 2.69199 9.72786 1.79828 9.2315C1.79762 9.25904 1.79762 9.28723 1.79762 9.31543C1.79762 12.5257 4.08206 15.2035 7.11398 15.8133C6.55795 15.9641 5.97242 16.0455 5.36787 16.0455C4.94036 16.0455 4.52531 16.0041 4.12074 15.9261C4.96462 18.5587 7.41167 20.4753 10.3111 20.5284C8.0431 22.306 5.18624 23.3656 2.08088 23.3656C1.54649 23.3656 1.01866 23.3341 0.500008 23.2725C3.43358 25.1537 6.91662 26.25 10.6587 26.25C22.8486 26.25 29.5138 16.1523 29.5138 7.3949C29.5138 7.10771 29.5079 6.82117 29.4954 6.5366C30.7897 5.6042 31.9136 4.43642 32.8014 3.10733Z" fill="white"/>
</svg>
