<svg width="137" height="41" viewBox="0 0 137 41" fill="none" xmlns="http://www.w3.org/2000/svg">
<path d="M18.4749 34.1587C15.2026 34.1587 11.9075 33.8716 8.5898 33.2975C5.27204 32.7235 2.40878 31.9102 0 30.8576L4.84028 23.7293C6.79457 24.6223 8.90794 25.308 11.1804 25.7865C13.4983 26.2649 15.7934 26.5041 18.0658 26.5041C20.3383 26.5041 22.1789 26.2011 23.5879 25.5951C24.9968 24.9572 25.7012 24.0801 25.7012 22.9638C25.7012 22.294 25.4285 21.704 24.8831 21.1937C24.3378 20.6515 23.4061 20.2528 22.088 19.9977C20.77 19.7106 18.8839 19.5671 16.4297 19.5671H3.47682L5.86288 0H36.268V7.31972H10.635L17.5205 3.15753L15.9525 16.3617L9.06701 12.1995H19.6338C24.3605 12.1995 28.1554 12.6779 31.0187 13.6348C33.882 14.5597 35.9726 15.8195 37.2906 17.4142C38.6086 18.9771 39.2676 20.7472 39.2676 22.7246C39.2676 24.7021 38.5177 26.5679 37.0179 28.3221C35.5636 30.0443 33.3139 31.4477 30.2688 32.5321C27.2237 33.6165 23.2924 34.1587 18.4749 34.1587Z" fill="#225CE2"/>
<path d="M43.5913 41L48.7043 28.5613L50.5449 33.7281C48.2725 33.7281 46.4091 33.2657 44.9548 32.3407C43.5004 31.3839 42.7732 30.1081 42.7732 28.5134C42.7732 26.8549 43.5004 25.5473 44.9548 24.5904C46.4546 23.6336 48.318 23.1552 50.5449 23.1552C52.7719 23.1552 54.6126 23.6496 56.067 24.6383C57.5213 25.5951 58.2485 26.8868 58.2485 28.5134C58.2485 28.9599 58.203 29.4065 58.1121 29.853C58.0212 30.2995 57.8167 30.8417 57.4986 31.4796C57.1804 32.1175 56.6805 32.9627 55.9988 34.0152L51.7039 41H43.5913Z" fill="#225CE2"/>
<path d="M68.2444 33.4889V3.39673L74.0391 7.31972H59.3819V0H81.7426V33.4889H68.2444Z" fill="#225CE2"/>
<path d="M95.8731 33.4889V3.39673L101.668 7.31972H87.0106V0H109.371V33.4889H95.8731Z" fill="#225CE2"/>
<path d="M123.502 33.4889V3.39673L129.296 7.31972H114.639V0H137V33.4889H123.502Z" fill="#225CE2"/>
</svg>
